<mxfile host="app.diagrams.net" modified="2021-10-28T12:21:34.471Z" agent="5.0 (Macintosh; Intel Mac OS X 10_15_7) AppleWebKit/537.36 (KHTML, like Gecko) Chrome/95.0.4638.54 Safari/537.36" etag="qPmS6UeoOxVC09OcT2FP" version="15.5.9" type="github">
  <diagram name="Page-1" id="e7e014a7-5840-1c2e-5031-d8a46d1fe8dd">
    <mxGraphModel dx="2594" dy="665" grid="1" gridSize="10" guides="1" tooltips="1" connect="1" arrows="1" fold="1" page="1" pageScale="1" pageWidth="1169" pageHeight="826" background="none" math="0" shadow="0">
      <root>
        <mxCell id="0" />
        <mxCell id="1" parent="0" />
        <mxCell id="2" value="房主" style="swimlane;whiteSpace=wrap" parent="1" vertex="1">
          <mxGeometry x="164.5" y="80" width="280" height="980" as="geometry">
            <mxRectangle x="164.5" y="80" width="60" height="23" as="alternateBounds" />
          </mxGeometry>
        </mxCell>
        <mxCell id="5" value="" style="ellipse;shape=startState;fillColor=#000000;strokeColor=#ff0000;" parent="2" vertex="1">
          <mxGeometry x="125" y="40" width="30" height="30" as="geometry" />
        </mxCell>
        <mxCell id="6" value="" style="edgeStyle=elbowEdgeStyle;elbow=horizontal;verticalAlign=bottom;endArrow=open;endSize=8;strokeColor=#000000;endFill=1;rounded=0" parent="2" source="5" target="7" edge="1">
          <mxGeometry x="100" y="40" as="geometry">
            <mxPoint x="115" y="110" as="targetPoint" />
          </mxGeometry>
        </mxCell>
        <mxCell id="7" value="云游戏建连" style="" parent="2" vertex="1">
          <mxGeometry x="85" y="110" width="110" height="50" as="geometry" />
        </mxCell>
        <mxCell id="8" value="推流直播&#xa;生成直播地址" style="" parent="2" vertex="1">
          <mxGeometry x="85" y="220" width="110" height="50" as="geometry" />
        </mxCell>
        <mxCell id="9" value="" style="endArrow=open;strokeColor=#000000;endFill=1;rounded=0" parent="2" source="7" target="8" edge="1">
          <mxGeometry relative="1" as="geometry" />
        </mxCell>
        <mxCell id="3" value="访客" style="swimlane;whiteSpace=wrap" parent="1" vertex="1">
          <mxGeometry x="444.5" y="80" width="280" height="980" as="geometry" />
        </mxCell>
        <mxCell id="OhpWUjJjAF3JHZ5ZkXEh-47" value="成为访客" style="" vertex="1" parent="3">
          <mxGeometry x="75.5" y="350" width="130" height="50" as="geometry" />
        </mxCell>
        <mxCell id="OhpWUjJjAF3JHZ5ZkXEh-51" value="" style="endArrow=none;html=1;rounded=0;strokeColor=#000000;" edge="1" parent="3">
          <mxGeometry width="50" height="50" relative="1" as="geometry">
            <mxPoint x="-280" y="470" as="sourcePoint" />
            <mxPoint x="565.5" y="470" as="targetPoint" />
          </mxGeometry>
        </mxCell>
        <mxCell id="4" value="观众" style="swimlane;whiteSpace=wrap" parent="1" vertex="1">
          <mxGeometry x="724.5" y="80" width="285.5" height="980" as="geometry" />
        </mxCell>
        <mxCell id="OhpWUjJjAF3JHZ5ZkXEh-46" style="edgeStyle=orthogonalEdgeStyle;rounded=0;orthogonalLoop=1;jettySize=auto;html=1;exitX=0.5;exitY=1;exitDx=0;exitDy=0;" edge="1" parent="4" source="OhpWUjJjAF3JHZ5ZkXEh-42" target="OhpWUjJjAF3JHZ5ZkXEh-45">
          <mxGeometry relative="1" as="geometry" />
        </mxCell>
        <mxCell id="OhpWUjJjAF3JHZ5ZkXEh-42" value="进入直播间" style="" vertex="1" parent="4">
          <mxGeometry x="90" y="220" width="110" height="50" as="geometry" />
        </mxCell>
        <mxCell id="OhpWUjJjAF3JHZ5ZkXEh-45" value="加入云游戏互动房间" style="" vertex="1" parent="4">
          <mxGeometry x="80" y="350" width="130" height="50" as="geometry" />
        </mxCell>
        <mxCell id="OhpWUjJjAF3JHZ5ZkXEh-49" value="" style="rounded=0;whiteSpace=wrap;html=1;fillColor=none;dashed=1;" vertex="1" parent="4">
          <mxGeometry x="43.25" y="190" width="204.5" height="230" as="geometry" />
        </mxCell>
        <mxCell id="OhpWUjJjAF3JHZ5ZkXEh-50" value="业务逻辑" style="text;html=1;resizable=0;autosize=1;align=center;verticalAlign=middle;points=[];fillColor=none;strokeColor=none;rounded=0;dashed=1;" vertex="1" parent="4">
          <mxGeometry x="42.75" y="190" width="60" height="20" as="geometry" />
        </mxCell>
        <mxCell id="OhpWUjJjAF3JHZ5ZkXEh-41" value="Actor" style="shape=umlActor;verticalLabelPosition=bottom;verticalAlign=top;html=1;" vertex="1" parent="1">
          <mxGeometry x="-50" y="250" width="30" height="60" as="geometry" />
        </mxCell>
        <mxCell id="OhpWUjJjAF3JHZ5ZkXEh-54" style="edgeStyle=orthogonalEdgeStyle;rounded=0;orthogonalLoop=1;jettySize=auto;html=1;exitX=0.5;exitY=1;exitDx=0;exitDy=0;entryX=0.5;entryY=0;entryDx=0;entryDy=0;strokeColor=#000000;" edge="1" parent="1" source="OhpWUjJjAF3JHZ5ZkXEh-43" target="OhpWUjJjAF3JHZ5ZkXEh-49">
          <mxGeometry relative="1" as="geometry" />
        </mxCell>
        <mxCell id="OhpWUjJjAF3JHZ5ZkXEh-43" value="" style="ellipse;shape=startState;fillColor=#000000;strokeColor=#ff0000;" vertex="1" parent="1">
          <mxGeometry x="855" y="130" width="30" height="30" as="geometry" />
        </mxCell>
        <mxCell id="OhpWUjJjAF3JHZ5ZkXEh-44" style="edgeStyle=orthogonalEdgeStyle;rounded=0;orthogonalLoop=1;jettySize=auto;html=1;exitX=1;exitY=0.5;exitDx=0;exitDy=0;entryX=0;entryY=0.5;entryDx=0;entryDy=0;" edge="1" parent="1" source="8" target="OhpWUjJjAF3JHZ5ZkXEh-42">
          <mxGeometry relative="1" as="geometry" />
        </mxCell>
        <mxCell id="OhpWUjJjAF3JHZ5ZkXEh-48" style="edgeStyle=orthogonalEdgeStyle;rounded=0;orthogonalLoop=1;jettySize=auto;html=1;exitX=0;exitY=0.5;exitDx=0;exitDy=0;entryX=1;entryY=0.5;entryDx=0;entryDy=0;" edge="1" parent="1" source="OhpWUjJjAF3JHZ5ZkXEh-45" target="OhpWUjJjAF3JHZ5ZkXEh-47">
          <mxGeometry relative="1" as="geometry" />
        </mxCell>
        <mxCell id="16" value="check for &#xa;new commands" style="" parent="1" vertex="1">
          <mxGeometry x="1207.9299999999998" y="772.5" width="110" height="50" as="geometry" />
        </mxCell>
        <mxCell id="17" value="" style="endArrow=open;strokeColor=#FF0000;endFill=1;rounded=0" parent="1" target="16" edge="1">
          <mxGeometry relative="1" as="geometry">
            <mxPoint x="1262.9299999999998" y="712.5" as="sourcePoint" />
          </mxGeometry>
        </mxCell>
        <mxCell id="18" value="command queue" style="" parent="1" vertex="1">
          <mxGeometry x="1207.9299999999998" y="877.5" width="110" height="50" as="geometry" />
        </mxCell>
        <mxCell id="19" value="" style="endArrow=open;strokeColor=#FF0000;endFill=1;rounded=0" parent="1" source="16" target="18" edge="1">
          <mxGeometry relative="1" as="geometry" />
        </mxCell>
        <mxCell id="21" value="queue empty" style="rhombus;fillColor=#ffffc0;strokeColor=#ff0000;" parent="1" vertex="1">
          <mxGeometry x="1337.9299999999998" y="777.5" width="80" height="40" as="geometry" />
        </mxCell>
        <mxCell id="22" value="yes" style="edgeStyle=elbowEdgeStyle;elbow=horizontal;align=left;verticalAlign=bottom;endArrow=open;endSize=8;strokeColor=#FF0000;exitX=0.5;exitY=0;endFill=1;rounded=0;entryX=0.75;entryY=0.5;entryPerimeter=0" parent="1" source="21" target="25" edge="1">
          <mxGeometry x="-1" relative="1" as="geometry">
            <mxPoint x="1347.9299999999998" y="702.5" as="targetPoint" />
            <Array as="points">
              <mxPoint x="1377.9299999999998" y="732.5" />
            </Array>
          </mxGeometry>
        </mxCell>
        <mxCell id="23" value="no" style="edgeStyle=elbowEdgeStyle;elbow=horizontal;align=left;verticalAlign=top;endArrow=open;endSize=8;strokeColor=#FF0000;endFill=1;rounded=0" parent="1" source="21" target="30" edge="1">
          <mxGeometry x="-1" relative="1" as="geometry">
            <mxPoint x="1377.9299999999998" y="857.5" as="targetPoint" />
          </mxGeometry>
        </mxCell>
        <mxCell id="24" value="" style="endArrow=open;strokeColor=#FF0000;endFill=1;rounded=0" parent="1" source="16" target="21" edge="1">
          <mxGeometry relative="1" as="geometry" />
        </mxCell>
        <mxCell id="25" value="" style="shape=line;strokeWidth=6;strokeColor=#ff0000;rotation=90" parent="1" vertex="1">
          <mxGeometry x="1317.9299999999998" y="680" width="50" height="15" as="geometry" />
        </mxCell>
        <mxCell id="26" value="" style="edgeStyle=elbowEdgeStyle;elbow=horizontal;verticalAlign=bottom;endArrow=open;endSize=8;strokeColor=#FF0000;endFill=1;rounded=0" parent="1" source="25" edge="1">
          <mxGeometry x="1317.9299999999998" y="642.5" as="geometry">
            <mxPoint x="1317.9299999999998" y="687.8333333333334" as="targetPoint" />
          </mxGeometry>
        </mxCell>
        <mxCell id="30" value="dispatch&#xa;command&#xa;worker thread" style="" parent="1" vertex="1">
          <mxGeometry x="1327.9299999999998" y="877.5" width="110" height="50" as="geometry" />
        </mxCell>
        <mxCell id="31" value="critical&#xa;section" style="shape=note;whiteSpace=wrap;size=17" parent="1" vertex="1">
          <mxGeometry x="1292.9299999999998" y="1042.5" width="100" height="50" as="geometry" />
        </mxCell>
        <mxCell id="32" value="" style="endArrow=none;strokeColor=#FF0000;endFill=0;rounded=0;dashed=1" parent="1" source="18" target="31" edge="1">
          <mxGeometry relative="1" as="geometry" />
        </mxCell>
        <mxCell id="34" value="" style="whiteSpace=wrap;strokeColor=#FF0000;fillColor=#FF0000" parent="1" vertex="1">
          <mxGeometry x="1432.9299999999998" y="947.5" width="5" height="45" as="geometry" />
        </mxCell>
        <mxCell id="41" value="" style="edgeStyle=elbowEdgeStyle;elbow=horizontal;entryX=0;entryY=0.5;strokeColor=#FF0000;endArrow=open;endFill=1;rounded=0" parent="1" source="30" target="34" edge="1">
          <mxGeometry width="100" height="100" relative="1" as="geometry">
            <mxPoint x="1247.9299999999998" y="1032.5" as="sourcePoint" />
            <mxPoint x="1347.9299999999998" y="932.5" as="targetPoint" />
            <Array as="points">
              <mxPoint x="1382.9299999999998" y="952.5" />
            </Array>
          </mxGeometry>
        </mxCell>
        <mxCell id="33" value="process&#xa;command" style="" parent="1" vertex="1">
          <mxGeometry x="1562.9299999999998" y="865" width="110" height="50" as="geometry" />
        </mxCell>
        <mxCell id="35" value="" style="edgeStyle=elbowEdgeStyle;elbow=horizontal;strokeColor=#FF0000;endArrow=open;endFill=1;rounded=0;entryX=0.25;entryY=0.5;entryPerimeter=0" parent="1" target="25" edge="1">
          <mxGeometry width="100" height="100" relative="1" as="geometry">
            <mxPoint x="1437.9299999999998" y="962.5" as="sourcePoint" />
            <mxPoint x="1347.9299999999998" y="672.5" as="targetPoint" />
            <Array as="points">
              <mxPoint x="1457.9299999999998" y="687.5" />
            </Array>
          </mxGeometry>
        </mxCell>
        <mxCell id="37" value="" style="edgeStyle=none;strokeColor=#FF0000;endArrow=open;endFill=1;rounded=0" parent="1" target="33" edge="1">
          <mxGeometry width="100" height="100" relative="1" as="geometry">
            <mxPoint x="1442.9299999999998" y="674.5" as="sourcePoint" />
            <mxPoint x="1562.9299999999998" y="674.5" as="targetPoint" />
          </mxGeometry>
        </mxCell>
        <mxCell id="38" value="" style="ellipse;shape=endState;fillColor=#000000;strokeColor=#ff0000" parent="1" vertex="1">
          <mxGeometry x="1602.9299999999998" y="960" width="30" height="30" as="geometry" />
        </mxCell>
        <mxCell id="39" value="" style="endArrow=open;strokeColor=#FF0000;endFill=1;rounded=0" parent="1" source="33" target="38" edge="1">
          <mxGeometry relative="1" as="geometry" />
        </mxCell>
        <mxCell id="20" value="" style="endArrow=open;strokeColor=#FF0000;endFill=1;rounded=0" parent="1" target="18" edge="1">
          <mxGeometry relative="1" as="geometry">
            <mxPoint x="1070.003170731707" y="620" as="sourcePoint" />
          </mxGeometry>
        </mxCell>
        <mxCell id="OhpWUjJjAF3JHZ5ZkXEh-52" value="" style="rounded=0;whiteSpace=wrap;html=1;fillColor=none;dashed=1;" vertex="1" parent="1">
          <mxGeometry x="220" y="280" width="170" height="90" as="geometry" />
        </mxCell>
        <mxCell id="OhpWUjJjAF3JHZ5ZkXEh-53" value="可选" style="text;html=1;resizable=0;autosize=1;align=center;verticalAlign=middle;points=[];fillColor=none;strokeColor=none;rounded=0;dashed=1;" vertex="1" parent="1">
          <mxGeometry x="220" y="280" width="40" height="20" as="geometry" />
        </mxCell>
      </root>
    </mxGraphModel>
  </diagram>
</mxfile>
